<svg xmlns="http://www.w3.org/2000/svg" viewBox="0 0 64 64" role="img" aria-label="Rafael Editor">
  <defs>
    <linearGradient id="bg" x1="0" y1="0" x2="1" y2="1">
      <stop offset="0%" stop-color="#15362d"/>
      <stop offset="100%" stop-color="#07110f"/>
    </linearGradient>
    <linearGradient id="accent" x1="0" y1="0" x2="1" y2="1">
      <stop offset="0%" stop-color="#9af8a9"/>
      <stop offset="100%" stop-color="#74f289"/>
    </linearGradient>
  </defs>
  <rect width="64" height="64" rx="18" fill="url(#bg)"/>
  <rect x="9" y="9" width="46" height="46" rx="14" fill="none" stroke="rgba(116,242,137,.18)"/>
  <path d="M20 48V16h15.6c7.6 0 12 3.9 12 10.1 0 4.8-2.5 8.1-6.9 9.5L49 48h-8.5l-7.2-11h-5V48H20zm8.3-17h6.1c3.4 0 5.4-1.5 5.4-4.3 0-2.8-2-4.2-5.4-4.2h-6.1V31z" fill="#f4f7f2"/>
  <circle cx="48.5" cy="15.5" r="4.5" fill="url(#accent)"/>
</svg>
